# xmcd
#
# Track frame offsets:
# 225
# 11196
# 23720
# 35379
# 46905
# 60172
# 70569
# 82881
# 95653
# 107173
# 117541
# 130387
# 142089
# 153929
# 166624
#
# Disc length: 2377 seconds
#
#
# Revision: 1
# Processed by: cddbd v1.5.1PL0 Copyright (c) Steve Scherf et al.
# Submitted via: FreeRIP 2.941 
#
DISCID=bc09460f
DTITLE=Ray Charles - A Sentimental Blues
DYEAR=1900
DGENRE=Blues
TTITLE0=A Sentimental Blues
TTITLE1=Rockin' Chair Blues
TTITLE2=What Have I Done
TTITLE3=Let's Have A Ball
TTITLE4=Alone In This City
TTITLE5=Ain't That Fine
TTITLE6=Honey Honey
TTITLE7=You'll Never Miss The Water
TTITLE8=She's On The Ball
TTITLE9=Goin' Down Slow
TTITLE10=Don't Putt All Your Dreams In One Basket
TTITLE11=How Long
TTITLE12=If I Give You My Love
TTITLE13=Blues Before Sunrise
TTITLE14=Can't You See Darling
EXTD=
EXTT0=
EXTT1=
EXTT2=
EXTT3=
EXTT4=
EXTT5=
EXTT6=
EXTT7=
EXTT8=
EXTT9=
EXTT10=
EXTT11=
EXTT12=
EXTT13=
EXTT14=
PLAYORDER=
